<svg width="1789" height="1347" viewBox="0 0 1789 1347" fill="none" xmlns="http://www.w3.org/2000/svg">
<circle cx="887.233" cy="494.983" r="494.983" fill="#FFEA9E"/>
<g clip-path="url(#clip0_1418_112)">
<path d="M717.046 1019.55H829.189C850.94 1019.55 868.585 1037.21 868.585 1058.95V1221.37C868.585 1243.13 850.925 1260.78 829.189 1260.78H762.673C715.74 1260.78 677.65 1222.67 677.65 1175.74V1058.95C677.65 1037.2 695.31 1019.55 717.046 1019.55Z" fill="#131B25"/>
<path d="M1284.15 907.546H1341.73C1363.49 907.546 1381.13 925.208 1381.13 946.949V1109.37C1381.13 1131.13 1363.47 1148.77 1341.73 1148.77H1309.9C1273.94 1148.77 1244.74 1119.57 1244.74 1083.6V946.934C1244.74 925.179 1262.4 907.531 1284.13 907.531L1284.15 907.546Z" fill="#131B25"/>
<path d="M577.153 1196.19L98.7766 1169.48L87.5781 1115.77L568.338 1110.46L577.153 1196.19Z" fill="#131B25"/>
<path d="M70.6807 1059.41C49.5185 1061.55 28.0068 1063.74 6.14585 1065.96C1.07782 1068.31 2.48481 1090.44 2.85809 1094.96C3.11652 1098.06 1.70953 1109.94 3.94923 1110.96C27.9733 1107.99 51.5763 1105.08 74.7581 1102.21C74.8156 1104.08 74.8299 1106.02 74.8299 1107.99C79.0365 1105.42 83.3006 1103.19 87.5646 1101.41C116.279 1089.92 149.3 1097.1 183.757 1089.92C198.114 1087.05 209.599 1095.67 222.521 1098.54C261.285 1107.15 298.613 1097.1 335.941 1097.1C383.32 1098.54 429.262 1111.46 478.076 1114.33C479.325 1114.48 480.574 1114.72 481.823 1115.01C517.141 1109.22 544.549 1104.73 567.291 1100.99C567.621 1099.36 567.965 1097.73 568.339 1096.1C569.817 1089.41 571.311 1082.73 572.789 1076.05L73.3081 1056.59C72.1308 1061.75 70.6807 1058.49 70.6807 1059.41Z" fill="#AED2FF"/>
<path d="M613.277 866.585C614.009 863.698 614.77 860.841 615.56 857.969L77.1425 858.629C77.0276 858.845 76.9271 859.06 76.8123 859.275C78.4633 896.41 75.5058 933.616 74.7736 970.793C49.1176 964.389 46.6194 990.265 45.7867 1013.67C44.9253 1038.14 46.8635 1034.06 74.7736 1031.32C74.7592 1045.98 74.0988 1053.15 73.3092 1056.59L572.79 1076.05C577.298 1055.64 581.677 1035.24 585.31 1014.62C594.024 965.164 600.844 915.293 613.277 866.57V866.585Z" fill="url(#paint0_linear_1418_112)"/>
<path d="M335.956 1097.1C298.628 1097.1 261.3 1107.15 222.536 1098.53C209.614 1095.66 198.129 1087.04 183.772 1089.92C149.315 1097.1 116.294 1089.92 87.5796 1101.4C83.3155 1103.18 79.0515 1105.41 74.8449 1107.98C74.8162 1132.88 71.2556 1164.01 101.937 1172.18C126.947 1178.85 210.935 1156.88 241.832 1154.36C247.804 1158.08 245.421 1164.74 246.096 1166.3C257.639 1195.1 267.315 1213.32 297.278 1226.53C328.634 1239.36 365.345 1232.24 397.074 1221.41C420.735 1212.81 443.304 1195.73 456.168 1173.56C457.048 1172.92 457.929 1172.28 458.809 1171.65C469.046 1153.18 475.722 1134.93 480.302 1115.28C480.819 1115.19 481.321 1115.1 481.838 1115.02C480.589 1114.73 479.34 1114.49 478.091 1114.34C429.277 1111.47 383.334 1098.55 335.956 1097.11V1097.1Z" fill="#131B25"/>
<path d="M786.765 509.778C789.12 490.019 663.926 463.741 665.032 443.896C630.977 434.031 597.396 423.16 560.125 412.204C515.949 399.323 355.006 415.564 333.169 440.392C315.381 460.61 296.013 479.163 277.636 498.807C273.587 503.144 269.28 507.437 265.648 512.119C262.719 515.881 260.81 520.203 258.326 524.238C258.254 524.353 258.182 524.454 258.111 524.554C259.589 526.048 261.082 527.584 262.59 529.178C261.082 527.599 259.589 526.048 258.111 524.554C255.684 528.431 252.798 531.519 249.41 533.902C249.525 539.46 249.783 546.237 249.798 550.646L768.718 551.852C777.936 534.793 785.645 519.256 786.78 509.749L786.765 509.778Z" fill="#01236B"/>
<path d="M249.784 550.691C231.149 551.452 245.506 550.016 217.596 550.691C166.542 644.489 130.305 752.574 77.1406 858.65L615.558 857.989C621.057 837.871 627.733 818.256 635.27 798.77C643.684 777 652.226 754.929 653.92 731.422C657.552 680.876 733.157 679.569 733.659 628.98C733.817 613.012 688.147 559.781 703.509 531.334L249.798 550.677L249.784 550.691Z" fill="url(#paint1_linear_1418_112)"/>
<path d="M486.86 1046.84H529.774L542.695 979.346H493.034C484.377 979.346 476.94 985.391 475.346 993.734L469.172 1025.96C467.091 1036.81 475.59 1046.84 486.86 1046.84Z" fill="#F3D44E"/>
<path d="M54.4278 1035.34H81.2036C86.1712 1035.34 90.4065 1031.73 91.1818 1026.81L98.6474 979.528C99.6093 973.396 94.8859 967.854 88.6693 967.854H59.5101C52.3603 967.854 46.2299 973.899 44.909 982.242L39.8123 1014.47C38.1038 1025.32 45.11 1035.34 54.4134 1035.34H54.4278Z" fill="#F3D44E"/>
<path d="M425.227 302.082L385.702 304.983L332.84 466.802L371.073 464.562L425.227 302.082Z" fill="#6E968B"/>
<path d="M236.807 315.931L191.41 475.08L221.574 473.314L276.088 313.045L236.807 315.931Z" fill="#2C7982"/>
<path d="M320.205 309.797L276.086 313.042L221.572 473.311L265.447 470.741L320.205 309.797Z" fill="#6E968B"/>
<path d="M320.207 309.791L265.449 470.735L332.841 466.8L385.704 304.98L320.207 309.791Z" fill="#2C7982"/>
<path d="M425.227 302.083L371.072 464.563L450.036 459.954L498.678 296.684L425.227 302.083Z" fill="#2C7982"/>
<path d="M539.812 293.654L498.679 296.684L450.037 459.954L491.902 457.513L539.812 293.654Z" fill="#6E968B"/>
<path d="M539.81 293.652L491.9 457.511L569.845 452.959L616.089 288.037L539.81 293.652Z" fill="#2C7982"/>
<path d="M660.995 284.752L616.086 288.04L569.842 452.962L614.363 450.348L660.995 284.752Z" fill="#6E968B"/>
<path d="M660.995 284.755L614.363 450.351L678.798 446.589L723.233 280.174L660.995 284.755Z" fill="#2C7982"/>
<path d="M528.341 841.5H106.244L221.1 575.845L664.733 557.178L528.341 841.5Z" fill="white"/>
<path d="M495.32 977.909L106.244 975.038V927.65L495.32 930.522V977.909Z" fill="#D3E1D6"/>
<path d="M6.14481 1113.11L473.782 1130.12V1082.73L8.54243 1065.81C3.8764 1065.64 0 1069.39 0 1074.05V1106.75C0 1110.18 2.71348 1113 6.14481 1113.11Z" fill="url(#paint2_linear_1418_112)"/>
<path d="M1475.08 665.418C1476.48 734.029 1475.08 802.338 1475.08 870.776C1457.37 849.883 1431.78 808.398 1414.28 788.768C1412.9 787.217 1412.82 784.532 1412.4 784.302C1405.45 783.713 1398.4 783.656 1391.3 782.981C1391.14 773.202 1393.09 761.125 1392.07 751.533C1391.97 750.643 1390.62 751.203 1390.51 750.284C1390.02 746.493 1390.35 744.224 1388.94 738.509C1384.1 718.937 1377.54 716.065 1373.87 711.254C1372.9 709.99 1371.68 708.712 1370.65 707.506C1370.39 707.205 1369.72 703.514 1367.82 701.533C1328.9 665.59 1265.74 653.944 1226.07 696.363C1224.28 698.287 1215.38 706.817 1214.99 708.325C1213.97 712.216 1217.1 711.513 1217.02 711.685C1208.47 730.826 1207.9 724.867 1208.87 764.012C1165.34 710.766 1119.74 654.988 1072.07 596.678C1071.81 591.681 1073.36 588.277 1068.38 584.932C1074.23 582.203 1083.55 574.047 1088.48 569.236C1111.79 616.595 1156.79 618.648 1179.08 584.917C1199.07 630.524 1237.98 631.773 1259.74 601.316C1292.82 669.482 1326.62 610.434 1330.29 613.364C1339.62 656.07 1378.4 653.643 1392.46 626.158C1408.6 660.708 1436.05 665.102 1451.15 637.143C1455.05 645.544 1459.89 653.858 1465.84 658.611C1468.9 661.052 1475.33 662.374 1475.1 665.36L1475.08 665.418Z" fill="url(#paint3_linear_1418_112)"/>
<path d="M1475.77 660.366L1475.1 665.406C1475.34 662.433 1468.9 661.098 1465.84 658.657C1459.89 653.904 1455.06 645.589 1451.15 637.189C1436.06 665.133 1408.6 660.753 1392.46 626.204C1378.42 653.674 1339.64 656.115 1330.29 613.409C1326.62 610.48 1292.82 669.527 1259.74 601.361C1237.98 631.818 1199.06 630.569 1179.08 584.963C1156.79 618.694 1111.79 616.654 1088.48 569.282C1083.55 574.092 1074.24 582.249 1068.38 584.977C1039.56 598.418 1008.06 587.102 987.303 551.792C957.527 589.917 901.936 578.845 868.973 528.17C832.793 568.262 779.457 558.627 738.798 503.801C739.271 501.762 732.61 501.274 736.084 498.244L742.387 501.116C752.15 510.507 766.076 527.624 776.772 533.957C814.631 556.401 851.084 546.407 868.958 517.213C902.023 573.705 955.431 584.934 987.289 543.018C1016.59 594.555 1059.38 596.666 1088.46 562.403C1112.01 610.106 1158.27 616.367 1178.01 576.979C1198.65 623.26 1238.78 630.741 1258.78 593.823C1281.45 642.373 1308.25 635.25 1331.14 605.44C1339.91 652.496 1379.49 650.974 1392.44 618.449C1407 656.862 1438.19 663.036 1451.14 629.794C1455.54 644.742 1465.59 657.465 1475.76 660.337L1475.77 660.366Z" fill="#6E968B"/>
<path d="M548.513 979.948C548.097 1001.23 548.542 1023.26 548.513 1044.61C518.693 1047.54 516.626 1051.9 517.545 1025.76C518.421 1000.74 521.091 973.099 548.513 979.948Z" fill="#F6AA18"/>
<path d="M544.143 1074.62C544.143 1076.17 547.905 1068.2 548.508 1103.74C523.354 1106.65 497.746 1109.61 471.683 1112.61C471.267 1107.77 469.774 1084.14 475.186 1081.61C498.541 1079.23 521.526 1076.9 544.143 1074.62Z" fill="url(#paint4_linear_1418_112)"/>
<path d="M548.511 1103.75C548.612 1109.29 548.339 1115.08 548.511 1120.38C523.74 1123.44 498.52 1126.56 472.849 1129.72C470.452 1128.63 471.959 1115.94 471.672 1112.64C497.745 1109.62 523.353 1106.66 548.497 1103.76L548.511 1103.75Z" fill="url(#paint5_linear_1418_112)"/>
<path d="M1475.78 963.59C1475.78 951.198 1475.76 938.863 1475.78 926.456C1481.84 926.293 1487.86 926.125 1493.84 925.953C1493.38 963.36 1500.4 965.801 1475.78 963.576V963.59Z" fill="#F6AA18"/>
<path d="M1499.08 993.898L1475.1 996.67C1474.48 989.332 1475.79 980.917 1475.77 980.084L1498.75 977.758C1499.28 978.289 1499.18 991.644 1499.08 993.898Z" fill="#EE8C36"/>
<path d="M1499.07 993.902C1499 995.669 1499.42 1002.22 1498.74 1003.04L1476.45 1006.83C1476.38 1000.67 1475.77 1000.05 1475.77 999.689C1475.73 995.956 1475.1 997.909 1475.1 997.708C1475.1 997.363 1475.1 997.018 1475.1 996.674L1499.07 993.902Z" fill="#CA4F20"/>
<path d="M1208.89 764.044C1208.89 764.418 1210.72 763.082 1208.89 771.64C1205.16 771.497 1181.53 769.156 1180.71 770.535C1178.4 783.889 1184.72 793.395 1190.23 803.835C1206.71 843.367 1216.06 846.268 1228.1 860.297C1229.61 862.064 1230.01 861.446 1230.1 861.547C1254.72 890.209 1278.57 918.024 1300.92 945.68C1285.24 966.043 1271.12 1000.49 1253.56 1023.5C1198.07 1028.31 1137.5 1036.1 1072.1 1043.24V596.725C1119.77 655.035 1165.38 710.813 1208.91 764.059L1208.89 764.044Z" fill="#AED2FF"/>
<path d="M1029.18 371.574C1021.35 419.421 1013.47 467.621 1005.52 516.177C984.36 511.739 962.638 507.144 940.341 502.477C941.217 477.132 963.37 368.688 963.111 361.221C962.997 357.975 962.896 355.721 961.001 352.433C947.467 348.603 933.77 344.726 919.911 340.801C911.479 391.108 902.989 441.788 894.442 492.842C867.163 487.141 839.009 481.153 809.965 475.093L841.163 316.289C870.308 324.962 899.208 330.807 926.53 339.006C962.149 349.719 996.334 361.695 1029.2 371.588L1029.18 371.574Z" fill="#6D9D74"/>
<path d="M1334.16 464.993C1339.53 506.444 1344.87 547.642 1350.18 588.587C1336.44 585.672 1322.4 582.771 1308.05 579.727C1302.85 537.519 1297.61 495.067 1292.33 452.37L1264.98 444.731C1270 488.002 1274.99 531.033 1279.96 573.825C1264.68 570.594 1249.05 567.349 1233.07 563.974C1228.78 519.933 1224.58 475.59 1224.11 431.793C1245.9 438.456 1267.24 442.103 1287.8 448.608C1303.53 453.591 1319.15 459.895 1334.18 464.993H1334.16Z" fill="#6D9D74"/>
<path d="M1192.31 420.925C1195.09 466.474 1197.87 511.889 1200.64 557.17C1182.8 553.407 1164.54 549.588 1145.81 545.653C1145.17 499.444 1149.25 454.742 1154.13 410.7L1121.43 400.835L1119.69 403.678L1108.05 537.727C1087.85 533.49 1067.12 529.111 1045.82 524.659C1052.96 477.148 1060.06 429.952 1067.12 383.072C1111.16 396.412 1152.81 408.905 1192.28 420.939L1192.31 420.925Z" fill="#6D9D74"/>
<path d="M1455.73 501.677C1460.85 539.357 1465.94 576.793 1470.99 613.985C1458.78 611.328 1446.28 608.829 1433.54 606.115L1419.52 490.764C1431.96 494.641 1443.69 497.412 1455.73 501.691V501.677Z" fill="#6D9D74"/>
<path d="M1396.74 483.875C1401.61 523.287 1406.45 562.47 1411.27 601.423C1399.31 598.882 1387.12 596.369 1374.67 593.741C1371.77 569.258 1359.87 491.356 1360.09 476.221C1360.1 475.029 1358.03 473.607 1360.5 471.812C1372.76 474.239 1385.01 480.443 1396.74 483.875Z" fill="#6D9D74"/>
<path d="M721.658 280.171C719.605 292.463 716.992 304.553 713.847 316.802C702.548 360.657 689.096 403.808 674.48 446.586C703.281 452.588 731.277 458.562 758.455 464.234C770.113 409.571 781.67 355.411 793.127 301.753C769.912 294.861 746.136 287.48 721.672 280.156L721.658 280.171Z" fill="#6D9D74"/>
<path d="M1224.08 431.79C1224.56 475.587 1228.77 519.93 1233.04 563.972C1222.4 561.731 1211.61 559.477 1200.64 557.165C1197.87 511.884 1195.1 466.469 1192.31 420.92C1202.05 423.892 1211.95 425.558 1221.57 428.516C1222.09 428.674 1223.93 431.733 1224.08 431.79Z" fill="#B9B78E"/>
<path d="M1067.15 383.068C1060.1 429.948 1053 477.143 1045.86 524.655C1032.63 521.883 1019.19 519.04 1005.51 516.183C1013.46 467.637 1021.34 419.436 1029.17 371.58C1042.05 375.457 1054.67 379.291 1067.13 383.068H1067.15Z" fill="#B9B78E"/>
<path d="M841.165 316.275L809.967 475.079C793.112 471.561 775.941 467.899 758.439 464.252C770.097 409.589 781.655 355.429 793.112 301.771C809.45 306.625 825.458 311.594 841.179 316.275H841.165Z" fill="#B9B78E"/>
<path d="M1419.54 490.747L1433.55 606.099C1426.21 604.534 1418.79 603.012 1411.27 601.418C1406.45 562.465 1401.61 523.282 1396.74 483.869C1404.49 486.138 1411.97 488.392 1419.54 490.747Z" fill="#B9B78E"/>
<path d="M1360.08 476.22C1359.87 491.355 1371.78 569.256 1374.67 593.74C1366.6 592.031 1358.43 590.336 1350.16 588.584C1344.86 547.64 1339.52 506.442 1334.14 464.99C1343.98 468.336 1355.37 468.322 1360.07 476.22H1360.08Z" fill="#B9B78E"/>
<path d="M1482.52 547.712C1484 570.659 1490.66 595.186 1493.16 618.649C1485.87 616.984 1478.47 615.62 1470.99 613.997C1465.94 576.805 1460.85 539.369 1455.73 501.689C1459.49 503.025 1464.03 501.905 1467.91 504.317C1474.67 517.586 1478.14 533.166 1482.52 547.712Z" fill="#B9B78E"/>
<path d="M1503.63 619.842C1500.42 619.023 1496.62 619.44 1493.17 618.65C1490.68 595.186 1484 570.645 1482.54 547.713C1489.83 571.923 1495.93 596.507 1503.64 619.842H1503.63Z" fill="#6D9D74"/>
<path d="M1145.82 545.656C1133.44 543.057 1120.87 540.4 1108.07 537.729L1119.72 403.681L1121.45 400.838L1154.16 410.703C1149.29 454.744 1145.2 499.446 1145.83 545.656H1145.82Z" fill="#B9B78E"/>
<path d="M940.343 502.478C925.311 499.333 910.006 496.088 894.443 492.828C903 441.774 911.49 391.094 919.913 340.787C933.772 344.712 947.469 348.589 961.003 352.418C962.898 355.707 962.998 357.961 963.113 361.207C963.386 368.674 941.219 477.118 940.343 502.463V502.478Z" fill="#B9B78E"/>
<path d="M1308.04 579.74C1298.81 577.787 1289.43 575.834 1279.94 573.838C1274.99 531.037 1269.99 488.005 1264.97 444.744L1292.32 452.384C1297.59 495.08 1302.83 537.532 1308.04 579.74Z" fill="#B9B78E"/>
<path d="M1440.79 1001.69C1439.65 1001.86 1438.58 1001.47 1438.62 1003.01C1430.99 1003.48 1423.23 1005.12 1415.4 1005.74C1389.92 945.169 1323.12 951.789 1292.31 1020.18C1280.56 1021.92 1268.54 1022.47 1256.4 1024.39C1256.46 1022.63 1255.02 1023.37 1253.53 1023.5C1271.1 1000.5 1285.21 966.048 1300.89 945.686C1329.23 908.882 1367.05 902.42 1397.11 926.444C1419.61 944.422 1426.08 975.626 1440.79 1001.7V1001.69Z" fill="url(#paint6_linear_1418_112)"/>
<path d="M889.864 1003.96C922.54 1007.76 953.035 1035.41 970.794 1059.37C1078.16 1044.48 1172.74 1037.65 1256.43 1024.39C1268.59 1022.47 1280.59 1021.92 1292.33 1020.18C1323.14 951.789 1389.93 945.169 1415.43 1005.74C1423.26 1005.14 1431.02 1003.48 1438.65 1003.01C1451.32 1002.22 1463.63 1001.32 1475.79 999.679C1475.79 1000.04 1476.39 1000.66 1476.46 1006.82C1477.17 1066.14 1464.62 1053.05 1421.4 1062.23C1419.87 1063.34 1417 1088.11 1407.49 1107.07C1407.32 1107.41 1405.44 1109.3 1405.21 1109.72C1417.37 1080.09 1423.18 1059.52 1416.57 1027.81C1412.88 1010.13 1401.26 992.269 1389.36 984.429C1356.96 963.076 1290.96 985.103 1291.89 1082.88C1291.89 1083.84 1290.07 1083.65 1290.07 1083.77C1197.81 1098.89 1095.07 1115.74 981.864 1134.3C976.968 1155.31 969.833 1174.82 958.907 1194.55L956.079 1196.61C956.15 1196.48 953.494 1196.74 954.657 1194.66C961.721 1182 968.354 1169.84 974.283 1156.92C982.711 1106.44 978.921 1094.63 956.079 1057.4C955.26 1056.05 957.586 1054.39 957.5 1054.26C956.61 1052.98 936.854 1034.56 939.654 1042.01C916.511 1016.51 870.984 1014.08 833.9 1026.07C803.478 1035.91 792.136 1050.27 768.131 1066.8C734.952 1108.28 732.626 1141.28 731.606 1188.84C730.888 1187.19 733.43 1180.07 727.055 1176.09C694.034 1178.77 604.288 1202.25 577.57 1195.13C542.208 1185.71 549.416 1147.73 548.554 1120.36C548.382 1115.06 548.655 1109.27 548.554 1103.73C616.645 1095.86 681.577 1088.35 743.35 1081.21C754.262 1060.75 769.437 1045.64 788.029 1031.86C819.744 1011.27 856.024 999.994 889.907 1003.94L889.864 1003.96Z" fill="#131B25"/>
<path d="M1072.08 1043.24C1137.48 1036.1 1198.05 1028.31 1253.54 1023.5C1255.05 1023.37 1256.49 1022.61 1256.41 1024.39C1172.73 1037.64 1078.14 1044.48 970.78 1059.37C953.021 1035.4 922.526 1007.76 889.85 1003.95V1002.4C921.837 1006.54 955.763 1028.67 969.388 1056.57C1005.01 1054.14 1039.39 1046.79 1072.07 1043.23L1072.08 1043.24Z" fill="#1A2216"/>
<path d="M1440.79 1001.69C1452.43 999.941 1463.87 999.295 1475.09 997.701C1475.09 997.902 1475.72 995.949 1475.76 999.683C1463.6 1001.31 1451.3 1002.22 1438.62 1003.01C1438.58 1001.49 1439.65 1001.87 1440.79 1001.69Z" fill="#1A2216"/>
<path d="M1475.09 870.782C1475.09 889.278 1475.79 907.902 1475.76 926.469C1475.75 938.876 1475.76 951.197 1475.76 963.604C1475.76 969.147 1475.73 974.546 1475.76 980.103C1475.76 980.936 1474.47 989.351 1475.09 996.689C1475.09 997.033 1475.09 997.378 1475.09 997.722C1463.89 999.316 1452.43 999.963 1440.79 1001.71C1426.1 975.637 1419.61 944.433 1397.11 926.455C1367.05 902.446 1329.23 908.893 1300.89 945.697C1278.54 918.026 1254.69 890.225 1230.07 861.563C1261.4 859.208 1364.77 864.407 1377.47 861.535C1377.93 861.434 1380.92 860.013 1380.26 858.189C1394.24 854.068 1412.22 807.93 1414.29 788.803C1431.79 808.432 1457.37 849.903 1475.09 870.811V870.782Z" fill="url(#paint7_linear_1418_112)"/>
<path d="M1380.27 858.167C1380.93 859.99 1377.94 861.412 1377.49 861.513C1364.78 864.384 1261.41 859.201 1230.08 861.541C1230 861.441 1229.61 862.058 1228.09 860.292C1261.62 855.137 1362.32 863.437 1380.27 858.152V858.167Z" fill="#C9A336"/>
<path d="M1391.3 782.998C1398.4 783.659 1405.45 783.716 1412.4 784.32C1412.82 784.549 1412.91 787.22 1414.28 788.785C1412.22 807.913 1394.26 854.065 1380.26 858.172C1362.31 863.456 1261.61 855.142 1228.07 860.311C1216.03 846.282 1206.7 843.381 1190.2 803.849C1194.31 811.617 1221.31 857.411 1226.57 856.563C1232.83 837.106 1222.96 834.191 1220.05 825.762C1219.73 824.857 1216.99 807.87 1218.02 806.204C1221.37 818.826 1223.82 836.015 1236.49 839.202C1243.18 840.897 1355.68 842.491 1361.29 841.155C1377.29 837.336 1378.91 798.88 1384.21 782.582C1386.57 782.783 1388.93 782.797 1391.27 783.027L1391.3 782.998Z" fill="#0B311D"/>
<path d="M1208.89 771.636C1209.58 771.665 1210.25 771.737 1210.93 771.766C1213.36 783.253 1215.06 794.928 1218.04 806.186C1216.99 807.852 1219.74 824.825 1220.06 825.744C1222.99 834.173 1232.84 837.088 1226.58 856.546C1221.32 857.407 1194.3 811.6 1190.21 803.831C1184.7 793.391 1178.38 783.885 1180.69 770.531C1181.53 769.167 1205.14 771.493 1208.88 771.636H1208.89Z" fill="#53461F"/>
<path d="M1384.22 782.562C1378.94 798.86 1377.3 837.316 1361.31 841.136C1355.69 842.485 1243.19 840.877 1236.5 839.183C1223.85 835.995 1221.38 818.806 1218.04 806.184C1215.06 794.94 1213.36 783.251 1210.93 771.764C1273.56 774.478 1331.47 778.082 1384.22 782.548V782.562Z" fill="url(#paint8_linear_1418_112)"/>
<path d="M701.125 531.002C700.852 531.505 700.579 532.022 700.307 532.538L708.777 532.108C706.638 531.792 704.154 531.433 701.125 531.002Z" fill="#EC6953"/>
<path d="M1068.38 584.975C1039.57 598.416 1008.07 587.101 987.306 551.79C957.53 589.915 901.94 578.844 868.976 528.168C856.586 541.896 842.186 549.765 826.981 552.02C820.779 552.939 814.433 552.925 808.03 551.977C792.74 549.708 777.134 542.126 762.332 529.418C754.191 522.424 746.281 513.88 738.801 503.8C738.758 503.958 735.341 502.594 735.183 503.972C734.723 507.921 735.484 522.755 735.513 530.782C735.513 533.654 735.441 535.664 735.183 535.966C721.271 533.955 718.816 533.596 708.766 532.132L700.295 532.562C696.864 538.895 693.504 545.271 690.188 551.718C641.517 646.378 604.447 753.085 552.03 858.069C551.57 858.973 551.125 859.892 550.666 860.797C552.432 900.473 549.259 940.235 548.484 979.968C548.067 1001.25 548.512 1023.28 548.484 1044.63C548.426 1083.79 544.105 1073.01 544.119 1074.64C544.119 1076.19 547.881 1068.22 548.484 1103.76C616.574 1095.89 681.506 1088.39 743.28 1081.25C754.191 1060.79 769.367 1045.68 787.959 1031.89C820.693 1007.61 853.269 997.703 889.837 1002.43C921.824 1006.56 955.75 1028.69 969.375 1056.59C1004.99 1054.17 1039.38 1046.81 1072.06 1043.25V596.722C1071.8 591.724 1073.35 588.321 1068.37 584.975H1068.38Z" fill="url(#paint9_linear_1418_112)"/>
<path d="M737.91 575.909C799.435 585.367 858.126 594.39 913.985 602.977C913.238 686.589 912.491 770.253 911.745 853.971C822.636 853.329 726.099 852.63 622.135 851.874C661.865 757.177 700.457 665.183 737.91 575.895V575.909Z" fill="white"/>
<path d="M604.733 1028.92C639.118 1017.6 640.296 1062.41 604.733 1057.7C587.706 1055.44 592.659 1032.9 604.733 1028.92Z" fill="#F3D44E"/>
<path d="M889.862 1002.42V1003.97C855.979 1000.02 819.699 1011.29 787.984 1031.88C820.718 1007.6 853.295 997.692 889.862 1002.42Z" fill="#261721"/>
<path d="M922.127 603.439C961.714 609.595 999.985 615.549 1036.94 621.303C1036.3 698.989 1035.66 776.723 1035.02 854.505C998.434 854.112 960.561 853.701 921.395 853.27C921.643 769.974 921.887 686.697 922.127 603.439Z" fill="white"/>
<path d="M950.379 725.662V782.426C940.272 781.952 928.7 782.814 925.8 779.008C923.087 760.441 926.13 742.132 926.532 723.752C934.558 724.398 942.497 725.03 950.379 725.662Z" fill="#F3D44E"/>
<path d="M950.379 782.437V777.957C953.351 780.168 963.027 781.375 964.506 777.914C965.411 775.789 965.798 732.537 964.506 730.512C963.315 728.631 953.179 729.421 950.379 728.674V725.688C960.4 726.492 971.527 726.018 974.269 729.809V781.36C971.527 784.806 960.371 782.925 950.379 782.466V782.437Z" fill="#DD8C10"/>
<path d="M950.379 777.959V728.662C953.179 729.409 963.315 728.633 964.506 730.5C965.798 732.539 965.411 775.791 964.506 777.902C963.013 781.377 953.336 780.156 950.379 777.945V777.959Z" fill="#F6AA18"/>
<path d="M956.048 1196.6C950.291 1206.5 945.812 1211.99 937.442 1219.86C923.573 1232.88 910.35 1241.4 892.906 1247.73C871.744 1255.41 849.849 1259.76 828.142 1260.4C812.607 1260.86 800.074 1258.84 786.262 1253.2C779.744 1250.54 766.894 1242.8 761.956 1238.41C745.115 1223.42 740.291 1208.94 731.576 1188.84C732.596 1141.28 734.921 1108.28 768.1 1066.8C792.105 1050.27 803.447 1035.92 833.87 1026.07C870.954 1014.08 916.466 1016.52 939.624 1042.01C936.839 1034.56 956.594 1052.97 957.47 1054.26C957.556 1054.39 955.23 1056.06 956.048 1057.41C978.876 1094.63 982.681 1106.44 974.253 1156.92C968.324 1169.84 961.705 1182.01 954.627 1194.66C953.464 1196.74 956.12 1196.48 956.048 1196.61V1196.6Z" fill="#362626"/>
<path d="M831.414 1197.35C825.585 1198.11 816.238 1192.76 811.615 1189.69C854.299 1142.58 831.471 1191.1 831.414 1197.35Z" fill="#36312B"/>
<path d="M869.764 1199.62C862.658 1201 856.168 1200.98 849.205 1201.95C853.34 1168.04 867.137 1169.09 869.764 1199.62Z" fill="#36312B"/>
<path d="M877.546 1070.38C867.195 1098.7 859.299 1103.07 855.58 1071.4C876.986 1066.32 875.249 1070.34 877.546 1070.38Z" fill="#36312B"/>
<path d="M908.012 1086.7C884.983 1110.72 878.939 1105.52 894.43 1076.11C902.843 1081.34 899.283 1077.74 908.012 1086.7Z" fill="#36312B"/>
<path d="M924.32 1116.43C896.094 1127.79 895.433 1120.3 918.419 1102.09C921.204 1107.96 922.338 1105.48 924.32 1116.43Z" fill="#36312B"/>
<path d="M855.578 1071.41C859.297 1103.07 867.193 1098.7 877.544 1070.39C877.789 1070.39 878.621 1066.39 881.407 1066.83C890.523 1068.2 893.754 1075.69 894.428 1076.12C878.937 1105.52 884.981 1110.72 908.01 1086.7C908.326 1087.03 913.983 1089.77 915.461 1091.83C922.08 1101 918.118 1101.42 918.419 1102.08C895.433 1120.29 896.094 1127.78 924.32 1116.42C924.822 1119.2 928.009 1124.19 927.249 1133.4C926.215 1134.89 924.693 1133.74 924.32 1136.14C915.935 1139.26 907.488 1142.41 898.98 1145.57C905.498 1149.87 911.977 1154.15 918.419 1158.4C915.016 1165.85 912.418 1171.18 906.503 1177.31C882.526 1156.79 875.247 1153.8 888.312 1189.9C887.853 1190.23 889.619 1193.29 881.392 1198.96C871.285 1203.67 871.4 1199.31 869.734 1199.62C867.107 1169.1 853.31 1168.05 849.175 1201.95C847.897 1202.12 831.214 1215.69 831.401 1197.33C831.473 1191.08 854.286 1142.56 811.603 1189.67C805.874 1185.87 797.863 1182.46 798.164 1174.16C836.038 1148.27 803.62 1153.69 798.164 1151.38C790.728 1148.22 782.601 1131.52 798.164 1130.21C803.477 1129.76 821.739 1139.53 821.552 1126C821.48 1121.12 805.788 1114.4 801.538 1111.84C804.223 1103.79 807.339 1098.32 814.101 1092.39C814.216 1092.29 815.766 1094.4 816.599 1093.68C839.843 1114.03 845.356 1110.42 834.66 1080.21C845.571 1074.28 842.499 1074.48 855.55 1071.38L855.578 1071.41Z" fill="#C1CDBF"/>
<path d="M906.517 1177.32C906.66 1179.7 903.918 1178.98 903.516 1179.4C898.778 1184.21 893.48 1186.19 888.341 1189.91C875.261 1153.81 882.54 1156.8 906.531 1177.32H906.517Z" fill="#36312B"/>
<path d="M816.613 1093.7C822.327 1088.86 828.214 1083.75 834.674 1080.23C845.356 1110.43 839.857 1114.05 816.613 1093.7Z" fill="#36312B"/>
<path d="M798.195 1130.23C798.827 1124.23 799.617 1117.77 801.569 1111.87C805.819 1114.42 821.511 1121.14 821.583 1126.02C821.77 1139.55 803.507 1129.79 798.195 1130.23Z" fill="#36312B"/>
<path d="M798.195 1174.2V1151.41C803.651 1153.72 836.069 1148.32 798.195 1174.2Z" fill="#36312B"/>
<path d="M924.321 1136.16C922.741 1146.04 923.143 1148.08 918.42 1158.4C911.978 1154.15 905.499 1149.88 898.98 1145.58C907.489 1142.41 915.936 1139.26 924.321 1136.14V1136.16Z" fill="#36312B"/>
<path d="M857.964 1108.94C891.761 1100.75 895.465 1152.69 864.281 1161.44C827.255 1171.82 823.077 1117.4 857.964 1108.94Z" fill="#6E968B"/>
<path d="M1405.19 1109.72C1402.58 1114.43 1399.97 1119.54 1396.74 1123.52C1394.76 1125.96 1392.7 1128.28 1390.52 1130.35C1385.27 1135.32 1379.81 1139.02 1373.88 1141.77C1361.99 1147.25 1351.44 1149.32 1339.25 1148.24C1331.86 1147.58 1325.1 1145.49 1318.61 1141.08C1314.8 1138.49 1311.13 1134.31 1308.04 1130.34C1300.47 1120.56 1290.61 1098.49 1290.05 1083.77C1290.05 1083.64 1291.87 1083.84 1291.87 1082.88C1290.94 985.117 1356.93 963.075 1389.34 984.428C1401.25 992.268 1412.86 1010.13 1416.55 1027.81C1423.17 1059.51 1417.37 1080.09 1405.19 1109.72Z" fill="#362626"/>
<path d="M784.555 1167.47C791.389 1216.53 854.79 1234.18 905.011 1191.38C942.999 1159.02 948.613 1108.81 918.42 1077.74C873.267 1031.24 771.476 1073.73 784.541 1167.47H784.555ZM918.435 1102.09C921.22 1107.97 922.354 1105.48 924.335 1116.44C924.838 1119.21 928.025 1124.21 927.264 1133.41C926.23 1134.91 924.709 1133.76 924.335 1136.16C922.756 1146.04 923.158 1148.07 918.435 1158.4C915.032 1165.85 912.433 1171.18 906.518 1177.31C906.662 1179.69 903.92 1178.98 903.518 1179.39C898.78 1184.2 893.482 1186.19 888.342 1189.9C887.883 1190.23 889.649 1193.29 881.422 1198.97C871.315 1203.68 871.43 1199.31 869.764 1199.63C862.658 1201 856.168 1200.99 849.205 1201.95C847.927 1202.12 831.244 1215.69 831.431 1197.33C825.602 1198.09 816.256 1192.75 811.633 1189.67C805.904 1185.87 797.893 1182.47 798.194 1174.17V1151.38C790.758 1148.22 782.631 1131.52 798.194 1130.21C798.826 1124.21 799.616 1117.75 801.568 1111.84C804.253 1103.79 807.369 1098.32 814.131 1092.39C814.246 1092.29 815.796 1094.4 816.629 1093.68C822.343 1088.84 828.229 1083.73 834.69 1080.21C845.601 1074.28 842.529 1074.48 855.579 1071.38C876.986 1066.3 875.249 1070.32 877.546 1070.36C877.79 1070.36 878.623 1066.37 881.408 1066.8C890.524 1068.18 893.755 1075.66 894.43 1076.09C902.843 1081.32 899.282 1077.71 908.011 1086.67C908.327 1087 913.984 1089.75 915.463 1091.8C922.081 1100.97 918.119 1101.39 918.42 1102.05L918.435 1102.09Z" fill="url(#paint10_linear_1418_112)"/>
<path d="M1319.48 1048.55C1308.2 1099.56 1338.05 1129.48 1372.27 1109.58C1384.19 1102.64 1396.59 1081.89 1398.29 1064.38C1405.04 994.343 1334.43 981.061 1319.5 1048.55H1319.48ZM1392.07 1059.31C1391.81 1065.38 1391.5 1070.39 1389.73 1076.28C1386.82 1085.97 1386.1 1083.56 1381.85 1089.88C1378.03 1095.57 1377.77 1094.98 1373.87 1099.17C1373.61 1099.46 1372.67 1104.93 1369.85 1106.67C1369.16 1107.1 1354.25 1110.77 1357.61 1106.75C1354.01 1108.07 1353.69 1106.35 1353.48 1106.39C1352.8 1106.55 1343.8 1115.84 1343.46 1103.69C1339.34 1103.26 1336.41 1100.58 1333.28 1097.49C1328.22 1092.51 1328.18 1093.6 1326.4 1085.93C1324.89 1079.4 1325.35 1072.7 1324.68 1067.59C1324.66 1067.48 1323.07 1068.25 1322.94 1067.28C1322.48 1063.86 1323.37 1058.56 1322.94 1055.03C1323.3 1054.84 1324.64 1053.74 1324.68 1053.61C1325.22 1051.8 1325.61 1045.22 1327.28 1040.45C1329.11 1035.2 1331.18 1032.07 1334.14 1027.96C1336.8 1024.25 1339.48 1022.52 1342.62 1019.99C1343.14 1019.57 1341.32 1017.15 1352.66 1013.07C1356.61 1011.65 1361.05 1010.45 1364.98 1010.5C1370.52 1010.56 1370.65 1011.6 1374.67 1014.98C1377.57 1017.41 1379.49 1020.94 1381.85 1024.14C1384.45 1027.67 1386.04 1028.58 1388.15 1033.3C1388.57 1034.25 1390.66 1036.43 1392.06 1043.27C1392.52 1045.48 1390.48 1045.02 1390.49 1045.15C1390.84 1047.37 1392.73 1043.64 1392.06 1059.28L1392.07 1059.31Z" fill="url(#paint11_linear_1418_112)"/>
<path d="M1364.98 1010.52C1360.99 1034.59 1357.28 1037.76 1352.66 1013.09C1356.61 1011.67 1361.04 1010.48 1364.98 1010.52Z" fill="#53461F"/>
<path d="M1390.51 1045.17C1375 1055.48 1377.26 1045.73 1388.15 1033.32C1388.57 1034.27 1390.67 1036.45 1392.06 1043.29C1392.52 1045.5 1390.48 1045.04 1390.49 1045.17H1390.51Z" fill="#36312B"/>
<path d="M1381.85 1024.15C1369.34 1040.79 1368.14 1034.53 1374.67 1014.99C1377.57 1017.41 1379.49 1020.95 1381.85 1024.15Z" fill="#36312B"/>
<path d="M1343.47 1103.7C1339.35 1103.27 1336.42 1100.58 1333.29 1097.5C1354.7 1067 1343.29 1097.31 1343.47 1103.7Z" fill="#36312B"/>
<path d="M1326.43 1085.93C1324.92 1079.4 1325.38 1072.7 1324.71 1067.59C1338.36 1073.51 1339.49 1073.42 1326.43 1085.93Z" fill="#36312B"/>
<path d="M1374.69 1014.99C1368.15 1034.54 1369.36 1040.8 1381.86 1024.15C1384.46 1027.69 1386.06 1028.59 1388.17 1033.32C1377.27 1045.72 1375.02 1055.49 1390.52 1045.16C1390.87 1047.39 1392.76 1043.65 1392.09 1059.29C1387.9 1061.62 1383.7 1063.95 1379.48 1066.3L1389.75 1076.27C1386.83 1085.96 1386.11 1083.55 1381.86 1089.86C1370.26 1071.89 1367 1077.14 1373.88 1099.16C1373.62 1099.44 1372.69 1104.91 1369.86 1106.65C1369.17 1107.08 1354.27 1110.76 1357.63 1106.74C1359.04 1106.22 1362.64 1106.45 1363.37 1105.09C1362.24 1081.55 1353.58 1081.44 1353.51 1106.39C1352.83 1106.55 1343.83 1115.84 1343.49 1103.69C1343.3 1097.3 1354.73 1066.99 1333.31 1097.49C1328.26 1092.51 1328.21 1093.6 1326.43 1085.93C1339.48 1073.42 1338.35 1073.51 1324.71 1067.59C1324.69 1067.48 1323.1 1068.25 1322.97 1067.28C1322.51 1063.87 1323.4 1058.56 1322.97 1055.03C1323.33 1054.84 1324.67 1053.74 1324.71 1053.61C1343.56 1062.24 1338.68 1050.83 1327.31 1040.45C1329.15 1035.2 1331.21 1032.07 1334.17 1027.96C1345.23 1046.45 1351.57 1041.16 1342.66 1019.99C1343.17 1019.57 1341.35 1017.15 1352.69 1013.07C1357.31 1037.74 1361.02 1034.56 1365.01 1010.5C1370.55 1010.56 1370.68 1011.6 1374.7 1014.98L1374.69 1014.99Z" fill="#C1CDBF"/>
<path d="M1381.85 1089.89C1378.03 1095.58 1377.77 1094.99 1373.87 1099.18C1366.99 1077.17 1370.25 1071.91 1381.85 1089.89Z" fill="#36312B"/>
<path d="M1342.63 1020.02C1351.54 1041.19 1345.21 1046.48 1334.14 1027.99C1336.8 1024.28 1339.48 1022.55 1342.63 1020.02Z" fill="#36312B"/>
<path d="M1392.07 1059.29C1391.81 1065.37 1391.5 1070.38 1389.73 1076.27L1379.46 1066.3C1383.69 1063.96 1387.89 1061.62 1392.07 1059.29Z" fill="#36312B"/>
<path d="M1324.7 1053.64C1325.24 1051.83 1325.63 1045.26 1327.29 1040.49C1338.68 1050.87 1343.55 1062.27 1324.7 1053.64Z" fill="#36312B"/>
<path d="M1357.62 1106.75C1354.01 1108.07 1353.7 1106.35 1353.48 1106.39C1353.55 1081.43 1362.21 1081.55 1363.34 1105.08C1362.61 1106.45 1359.01 1106.23 1357.6 1106.73L1357.62 1106.75Z" fill="#36312B"/>
<path d="M1357.21 1039.82C1375.3 1034.86 1376.81 1071.38 1361.32 1077.74C1340.06 1086.46 1339.18 1044.76 1357.21 1039.82Z" fill="#6E968B"/>
<path d="M1493.17 618.638C1485.88 616.973 1478.49 615.608 1471.01 613.986C1458.79 611.329 1446.3 608.831 1433.55 606.117C1426.21 604.551 1418.79 603.029 1411.27 601.435C1399.31 598.894 1387.12 596.381 1374.67 593.753C1366.6 592.044 1358.43 590.35 1350.16 588.598C1336.42 585.683 1322.38 582.782 1308.04 579.738C1298.81 577.785 1289.43 575.832 1279.94 573.836C1264.67 570.605 1249.03 567.36 1233.05 563.985C1222.41 561.745 1211.62 559.491 1200.65 557.179C1182.82 553.416 1164.55 549.597 1145.82 545.662C1133.44 543.063 1120.87 540.406 1108.07 537.736C1087.87 533.499 1067.14 529.12 1045.85 524.668C1032.63 521.897 1019.19 519.054 1005.51 516.196C984.345 511.759 962.623 507.164 940.327 502.497C925.295 499.352 909.99 496.107 894.427 492.847C867.149 487.146 838.995 481.158 809.95 475.098C793.095 471.58 775.924 467.919 758.423 464.271C731.245 458.599 703.263 452.625 674.449 446.623C666.251 470.633 657.68 494.527 648.922 518.35C678.957 526.894 709.638 516.311 732.465 490.851C736.471 491.239 739.989 498.849 742.4 501.161C752.163 510.553 766.09 527.669 776.786 534.002C814.645 556.446 851.098 546.452 868.972 517.259C902.036 573.75 955.445 584.979 987.303 543.063C1016.61 594.6 1059.39 596.711 1088.48 562.449C1112.02 610.152 1158.28 616.412 1178.02 577.024C1198.67 623.305 1238.79 630.787 1258.79 593.868C1281.46 642.418 1308.27 635.296 1331.15 605.485C1339.93 652.542 1379.51 651.019 1392.46 618.495C1407.02 656.907 1438.2 663.082 1451.15 629.839C1455.56 644.787 1465.61 657.51 1475.77 660.382C1486.61 663.441 1493.1 658.601 1500.71 649.512C1500.87 649.986 1501.54 651.177 1502.49 652.728V619.615C1499.55 619.112 1496.22 619.356 1493.17 618.653V618.638Z" fill="#362626"/>
<path d="M1404.35 783.386L1184.97 769.658V636.256L1404.35 670.001V783.386Z" fill="white"/>
<path d="M656.105 497.59L678.803 446.584L191.41 475.059L175.934 517.248L177.355 517.191C176.881 518.512 176.594 519.862 176.594 521.269C176.594 531.579 190.262 539.937 207.131 539.937C221.718 539.937 233.893 533.69 236.922 525.333C239.952 533.69 252.126 539.937 266.713 539.937C281.3 539.937 293.475 533.69 296.504 525.333C299.533 533.69 311.708 539.937 326.295 539.937C340.882 539.937 351.994 534.207 355.641 526.395C359.905 533.762 371.692 538.73 385.317 538.156C399.889 537.539 411.762 530.761 414.418 522.288C417.835 530.502 430.283 536.232 444.855 535.614C459.428 534.997 471.301 528.219 473.957 519.747C477.374 527.961 489.821 533.69 504.394 533.073C517.947 532.498 529.16 526.611 532.806 518.971C536.941 526.482 548.843 531.565 562.612 530.976C577.184 530.359 589.057 523.581 591.713 515.109C595.13 523.322 607.578 529.052 622.15 528.434C639.005 527.716 652.271 518.785 651.797 508.489" fill="#101116"/>
</g>
<path d="M1021.91 1242.43L1027.05 1267.12L1024.47 1273.93C1024.47 1273.93 1021.64 1296.42 1024.47 1302.11C1027.3 1307.8 1038.81 1315.01 1038.81 1325.06C1038.81 1335.11 1073.84 1358.43 1085.83 1340.3C1089.18 1313.56 1065.61 1311.48 1052.2 1232.76C1038.81 1154.04 1021.89 1242.43 1021.89 1242.43H1021.91Z" fill="#282828"/>
<path d="M962.003 1228.9V1294.5C962.003 1295.88 961.079 1297.1 959.748 1297.48C955.659 1298.67 946.317 1300.61 934.51 1298.32C933.515 1298.12 932.745 1297.34 932.535 1296.36L932.479 1296.06C932.143 1294.46 930.378 1293.59 928.893 1294.3L920.392 1298.4C920.392 1298.4 872.239 1304.2 844.857 1298.79C843.681 1298.55 842.798 1297.6 842.63 1296.43C842.392 1294.72 842.126 1292.16 842.322 1289.8C842.476 1287.95 843.779 1286.4 845.543 1285.84C856.58 1282.32 899.775 1267.9 911.666 1253.87C925.336 1237.75 922.857 1224.09 922.857 1224.09L962.003 1228.88V1228.9Z" fill="#282828"/>
<path d="M1012.89 653.819C1012.89 653.819 1003.05 695.339 1023.83 696.429C1044.62 697.52 985.539 715.001 985.539 715.001C985.539 715.001 942.862 708.442 956 700.792C969.124 693.143 962.975 653.819 962.975 653.819C962.975 653.819 989.923 621.039 1012.89 653.819Z" fill="#8E5B49"/>
<path d="M922.285 709.713C922.285 709.713 882.13 708.986 883.223 767.987L878.293 770.714V774.447L874.021 779.552V787.089L848.754 819.869C848.754 819.869 867.354 846.09 880.492 839.531C893.629 832.972 926.445 790.376 926.445 790.376L922.285 709.713Z" fill="#323335"/>
<path d="M1036.95 857.025L908.939 862.493L909.611 857.766C909.877 855.878 909.527 853.949 908.603 852.27L905.578 846.83C904.905 845.628 904.527 844.299 904.457 842.915C904.457 842.915 903.463 779.453 899.023 734.759C898.28 727.249 906.194 713.223 917.357 710.79L967.932 699.784C978.171 697.56 988.633 696.497 999.124 696.651C999.124 696.651 1046.81 697.532 1063.23 697.532C1089.49 746.688 1055.57 786.026 1046.79 838.496C1046.52 840.104 1044.21 842.509 1042.04 844.467C1039.46 846.788 1037.79 849.949 1037.39 853.403L1036.97 857.039L1036.95 857.025Z" fill="#464749"/>
<path d="M1031.49 747.782C1031.49 747.782 1032.58 765.263 1035.86 769.626C1039.14 773.989 1041.33 775.094 1041.33 775.094C1041.33 775.094 1041.31 781.653 1043.51 783.834C1045.7 786.016 1051.18 795.008 1055 811.272C1058.83 827.536 1082.9 855.938 1100.41 834.08C1117.92 812.237 1093.84 742.314 1092.75 740.133C1091.66 737.951 1092.75 731.393 1089.47 725.925C1086.2 720.457 1073.06 697.522 1063.21 697.522C1053.37 697.522 1031.47 693.159 1031.47 747.782H1031.49Z" fill="#464749"/>
<path d="M1055.01 820.418C1055.01 820.418 1052.82 812.769 1057.19 808.405C1061.56 804.042 1076.88 788.743 1090.02 792.016C1103.16 795.288 1114.1 801.847 1114.1 816.055C1114.1 830.263 1107.53 852.107 1086.74 840.094C1065.96 828.082 1055.01 820.432 1055.01 820.432V820.418Z" fill="#585B5E"/>
<path d="M1023.83 827.525C1023.83 827.525 1045.7 825.343 1051.18 820.966C1056.66 816.589 1064.3 804.576 1082.92 801.304C1101.52 798.031 1111.36 819.875 1102.61 835.174C1099.33 843.914 1096.95 836.265 1083.37 847.732C1069.78 859.199 1054.35 855.661 1041.28 853.606C1028.21 851.55 995.381 859.199 1023.83 827.511V827.525Z" fill="#8E5B49"/>
<path d="M908.937 862.468L895.702 885.263L888.965 957.409L895.702 995.712C895.702 995.712 893.615 1071.13 906.738 1114.83C919.862 1158.53 916.585 1237.2 916.585 1237.2L930.997 1240.06L950.227 1245.27C950.227 1245.27 963.631 1239.56 964.177 1237.83C964.723 1236.09 966.754 1160.09 966.754 1160.09L977.189 990.566L965.816 860.035L908.923 862.468H908.937Z" fill="#323335"/>
<path d="M1036.95 857.024L1044.61 877.777C1044.61 877.777 1054.88 1072.24 1054.67 1076.06C1054.46 1079.88 1052.29 1082.5 1053.93 1086.1C1055.56 1089.71 1057.46 1088.68 1057.61 1094.66C1057.75 1100.65 1053.38 1101.67 1055.02 1104.98C1056.66 1108.3 1062.27 1229.56 1063.84 1255.23C1063.84 1255.23 1049 1264.22 1036.96 1262.18C1024.93 1260.14 1016.33 1262.18 1016.33 1262.18L992.874 1138.84V1124.41L982.818 1090.8L984.456 1085.33L979.834 1082.4L958.741 978.717L947.256 972.815L931.023 861.527L1036.98 857.01L1036.95 857.024Z" fill="#464749"/>
<path d="M1036.43 696.629C1036.43 696.629 1027.01 681.148 1012.55 722.374C998.114 763.614 1000.44 975.395 1005.28 1045.93C1005.28 1045.93 948.84 1045.54 951.586 1074.46L914.148 1090.95C914.148 1090.95 888.699 727.338 928.63 708.334C928.63 708.334 935.731 705.719 940.101 704.628C940.101 704.628 925.871 706.809 924.778 758.16L994.808 751.602C994.808 751.602 1006.9 675.54 1036.41 696.629H1036.43Z" fill="#E0E0E0"/>
<path d="M1018.35 625.405C1018.35 604.289 1004.64 587.172 987.721 587.172C970.802 587.172 957.09 604.289 957.09 625.405C957.09 626.888 958.827 641.949 958.827 641.949C960.521 653.836 966.39 664.744 975.396 672.729L976.572 673.778C979.527 676.407 983.351 677.847 987.301 677.847C991.251 677.847 994.794 676.505 997.707 674.057L999.136 672.855C1008.7 664.814 1014.96 653.542 1016.73 641.18C1016.73 641.18 1018.35 626.888 1018.35 625.405Z" fill="#AD7B6A"/>
<path d="M996.519 661.666C992.555 660.827 988.732 660.827 984.74 661.47C979.418 662.323 973.773 663.33 968.787 665.61C970.748 668.169 972.947 670.56 975.384 672.728L976.56 673.777C979.516 676.406 983.339 677.846 987.289 677.846C991.239 677.846 994.782 676.503 997.696 674.056L999.124 672.854C1002 670.434 1004.57 667.721 1006.83 664.771C1003.44 663.568 1000.03 662.421 996.505 661.68L996.519 661.666Z" fill="#9C6853"/>
<path d="M1023.27 578.369C1024.1 571.908 1018.23 566.604 1011.89 568.084L962.863 579.523C958.322 580.582 955.259 584.828 955.685 589.471L958.181 616.671V616.671C976.815 607.631 998.527 607.452 1017.31 616.185L1018.35 616.671L1023.27 578.369Z" fill="#CBBC96"/>
<path d="M1005.23 853.729H801.707L779.83 811.133H1027.11L1005.23 853.729Z" fill="#CBBC96"/>
<path d="M1002.96 807.967C1003 807.897 1003.07 807.827 1003.16 807.785C1004.05 807.338 1010.03 804.317 1015.08 801.282C1020.55 798.01 1029.31 808.932 1031.49 812.204C1033.68 815.477 1034.85 842.005 1034.85 842.005C1034.85 842.005 1036.95 854.787 1015.13 860.269C1015.09 860.269 1015.05 860.283 1015.02 860.283H994.151C994.151 860.283 994.053 860.283 994.011 860.255C992.807 859.821 975.691 853.612 975.691 850.452C975.691 847.291 978.969 844.984 987.723 848.27C996.476 851.543 998.661 853.738 1001.95 850.452C1005.24 847.165 981.168 841.712 980.075 837.348C978.983 832.985 977.89 822.049 981.168 820.959C984.067 819.994 985.608 819.588 1004.32 827.573C1004.84 827.797 1005.22 827.056 1004.73 826.776C996.742 822.203 985.552 815.421 985.552 813.309C985.552 810.037 985.552 806.75 998.675 811.128C1011.8 815.491 1014 820.959 1016.18 816.595C1018.37 812.232 997.765 816.554 1002.98 807.981L1002.96 807.967Z" fill="#9C6853"/>
<g clip-path="url(#clip1_1418_112)">
<path d="M1532.85 1122.35C1532.88 1123.09 1532.93 1123.83 1532.97 1124.58L1510.17 1127.65C1509.61 1122.9 1509.21 1118.07 1509.04 1113.17C1506.42 1042.27 1551.99 1016.56 1582.03 1015.46C1598.74 1014.84 1614.65 1020.46 1628.57 1030.8C1620.1 1027.28 1611.17 1025.55 1601.99 1025.9C1553.27 1027.7 1530.22 1050.83 1532.87 1122.35H1532.85Z" fill="#285351"/>
<path d="M1611.8 1246.24C1573.48 1247.65 1540.61 1199.79 1538.37 1139.33C1536.14 1079.03 1565.25 1028.98 1603.44 1027.34C1597.19 1024.51 1590.66 1023.06 1583.95 1023.32C1545.63 1024.74 1516.55 1079.48 1518.99 1145.58C1521.44 1211.69 1554.48 1264.12 1592.8 1262.71C1606.91 1262.19 1619.75 1254.43 1630.24 1241.55C1624.42 1244.35 1618.25 1245.99 1611.81 1246.24H1611.8Z" fill="url(#paint12_linear_1418_112)"/>
<path d="M1578.5 1030.62L1586.45 1245.95" stroke="#1F2A2B" stroke-width="9.3393" stroke-miterlimit="10" stroke-linecap="round"/>
<path d="M1647.15 1162.93L1528.21 1129.47" stroke="#1F2A2B" stroke-width="9.3393" stroke-miterlimit="10" stroke-linecap="round"/>
<path d="M1640.63 1071.61L1539.77 1199.22" stroke="#1F2A2B" stroke-width="9.3393" stroke-miterlimit="10" stroke-linecap="round"/>
<path d="M1538.38 1073.13L1630.5 1221.13" stroke="#1F2A2B" stroke-width="9.3393" stroke-miterlimit="10" stroke-linecap="round"/>
<path d="M1585.49 1020.92C1545.83 1022.37 1515.7 1078.91 1518.23 1147.21C1520.75 1215.49 1554.97 1269.65 1594.63 1268.2C1634.3 1266.74 1664.43 1210.2 1661.89 1141.9C1659.38 1073.62 1625.16 1019.46 1585.49 1020.92ZM1584.19 1251.21C1551.74 1252.41 1523.6 1204.02 1521.34 1143.13C1519.09 1082.25 1543.58 1031.91 1576.04 1030.71C1608.5 1029.51 1636.63 1077.9 1638.89 1138.79C1641.14 1199.67 1616.65 1250.01 1584.19 1251.21Z" fill="#0E0F0F"/>
<path d="M1582.42 1136.94L1570.99 1137.36L1571.52 1151.54L1582.95 1151.11C1585.65 1151.01 1587.72 1147.75 1587.58 1143.84C1587.44 1139.94 1585.12 1136.84 1582.42 1136.94Z" fill="url(#paint13_linear_1418_112)"/>
<path d="M1571.58 1151.49C1574.29 1151.39 1576.37 1148.14 1576.22 1144.22C1576.08 1140.31 1573.77 1137.22 1571.06 1137.32C1568.35 1137.42 1566.27 1140.67 1566.42 1144.59C1566.56 1148.5 1568.88 1151.59 1571.58 1151.49Z" fill="#618885"/>
<path d="M1578.45 1024.56C1543.28 1025.86 1516.77 1080.96 1519.23 1147.6C1521.69 1214.27 1552.2 1267.25 1587.36 1265.96C1622.54 1264.66 1649.05 1209.56 1646.59 1142.91C1644.12 1076.25 1613.61 1023.27 1578.45 1024.56ZM1578.07 1249.37C1549.29 1250.43 1524.18 1203.11 1521.99 1143.67C1519.79 1084.23 1541.35 1035.18 1570.11 1034.11C1598.89 1033.05 1624 1080.37 1626.19 1139.81C1628.39 1199.25 1606.83 1248.3 1578.07 1249.37Z" fill="#1F2A2B"/>
<path d="M1656.56 1153.54C1656.59 1154.28 1656.6 1155.03 1656.62 1155.77L1679.49 1154.93C1679.7 1150.15 1679.73 1145.3 1679.55 1140.4C1676.93 1069.5 1633.56 1013.55 1582.68 1015.42C1565.97 1016.04 1550.52 1022.82 1537.4 1034.17C1545.58 1030.04 1554.37 1027.65 1563.55 1027.32C1612.27 1025.52 1653.91 1082.04 1656.56 1153.55V1153.54Z" fill="url(#paint14_linear_1418_112)"/>
<path d="M1037.22 508.816L1053.43 462.671C1053.43 462.671 1236.69 298.457 1413.25 299.572C1573.05 287.289 1783.8 440.665 1786.79 459.654C1789.78 478.644 1786.79 500.851 1786.79 500.851L1646.29 526.933C1634.93 529.035 1623.23 526.018 1614.33 518.668L1589.17 497.905C1584.24 493.83 1576.83 495.16 1573.62 500.693C1557.04 529.307 1526.33 546.78 1493.24 546.38L1310.09 544.207C1298.1 544.779 1286.66 539.202 1279.75 529.392L1273.64 520.741C1271.31 517.438 1266.3 517.767 1264.43 521.342L1259.41 530.922C1251.56 545.88 1234.63 553.687 1218.16 549.941L1037.22 508.816Z" fill="url(#paint15_linear_1418_112)"/>
<path d="M1596.87 1012.97C1595.07 1012.97 1593.31 1012.13 1592.19 1010.55C1590.36 1007.98 1590.97 1004.41 1593.56 1002.58L1701.95 925.987C1716.54 915.678 1736.42 916.335 1750.31 927.589L1771.45 944.72C1773.91 946.707 1774.29 950.311 1772.3 952.77C1770.31 955.23 1766.71 955.602 1764.24 953.614L1743.1 936.483C1733.19 928.447 1718.99 927.975 1708.56 935.339L1600.17 1011.93C1599.17 1012.64 1598.01 1012.97 1596.88 1012.97H1596.87Z" fill="#285351"/>
<path d="M1676.2 903.362L1383.98 896.098L1153.22 903.362L1444.88 920.106L1676.2 903.362Z" fill="#A19467"/>
<path d="M1278.61 920.134L1277.26 732.439L1207.97 738.031V959.242V1158.6L1445.44 1237.92V930.729L1278.61 920.134Z" fill="url(#paint16_linear_1418_112)"/>
<path d="M1633.73 916.764L1445.44 930.734V1237.93L1633.73 1192.13V916.764Z" fill="#216F67"/>
<path d="M1627.02 1058.62L1453.27 1088.24V1226.75L1627.02 1184.3V1058.62Z" fill="#CBBC96"/>
<path d="M1272.23 823.848L1200.91 822.947V762.503L1272.23 759.801V823.848Z" fill="#123C37"/>
<path d="M1627.02 951.199L1453.27 969.946V1047.21L1627.02 1021.29V951.199Z" fill="#CBBC96"/>
<path d="M1258.25 824.036L1193.44 822.92V748.077L1258.25 744.717V824.036Z" fill="#216F67"/>
<path d="M1444.88 934.628L1676.2 917.869V903.355L1444.88 920.1V934.628Z" fill="#CBBC96"/>
<path d="M1164.95 912.859L1214.68 957.988V916.763L1164.95 912.859Z" fill="#123C37"/>
<path d="M1265.52 920.666L1315.26 965.809V924.584L1265.52 920.666Z" fill="#123C37"/>
<path d="M1387.32 929.605L1437.06 974.749V933.523L1387.32 929.605Z" fill="#123C37"/>
<path d="M1546.8 974.003C1543.93 974.003 1541.45 971.858 1541.12 968.927C1540.77 965.781 1543.03 962.95 1546.16 962.592L1758.61 938.326C1761.75 937.969 1764.59 940.228 1764.94 943.36C1765.3 946.506 1763.04 949.337 1759.91 949.694L1547.46 973.96C1547.25 973.989 1547.02 974.003 1546.8 974.003Z" fill="url(#paint17_linear_1418_112)"/>
<path d="M1243.42 1156.98C1243.45 1157.72 1243.49 1158.47 1243.54 1159.21L1220.73 1162.28C1220.18 1157.54 1219.78 1152.7 1219.6 1147.8C1216.99 1076.9 1262.56 1051.19 1292.6 1050.09C1309.31 1049.48 1325.21 1055.1 1339.13 1065.43C1330.66 1061.92 1321.74 1060.19 1312.55 1060.53C1263.83 1062.33 1240.79 1085.47 1243.44 1156.98H1243.42Z" fill="#285351"/>
<path d="M1322.38 1280.87C1284.06 1282.28 1251.19 1234.42 1248.96 1173.97C1246.73 1113.67 1275.84 1063.62 1314.03 1061.97C1307.78 1059.14 1301.24 1057.7 1294.53 1057.96C1256.21 1059.37 1227.13 1114.11 1229.58 1180.22C1232.02 1246.32 1265.07 1298.76 1303.39 1297.34C1317.49 1296.83 1330.34 1289.06 1340.82 1276.18C1335 1278.98 1328.84 1280.63 1322.4 1280.87H1322.38Z" fill="url(#paint18_linear_1418_112)"/>
<path d="M1289.07 1065.26L1297.03 1280.58" stroke="#1F2A2B" stroke-width="9.3393" stroke-miterlimit="10" stroke-linecap="round"/>
<path d="M1357.71 1197.56L1238.77 1164.1" stroke="#1F2A2B" stroke-width="9.3393" stroke-miterlimit="10" stroke-linecap="round"/>
<path d="M1351.21 1106.25L1250.35 1233.87" stroke="#1F2A2B" stroke-width="9.3393" stroke-miterlimit="10" stroke-linecap="round"/>
<path d="M1248.96 1107.74L1341.06 1255.74" stroke="#1F2A2B" stroke-width="9.3393" stroke-miterlimit="10" stroke-linecap="round"/>
<path d="M1296.08 1055.53C1256.41 1056.99 1226.28 1113.53 1228.82 1181.82C1231.33 1250.1 1265.55 1304.27 1305.22 1302.81C1344.88 1301.35 1375.01 1244.81 1372.48 1176.52C1369.96 1108.24 1335.74 1054.07 1296.08 1055.53ZM1294.77 1285.84C1262.32 1287.04 1234.18 1238.65 1231.92 1177.76C1229.67 1116.88 1254.16 1066.54 1286.62 1065.34C1319.08 1064.14 1347.21 1112.53 1349.47 1173.42C1351.72 1234.3 1327.23 1284.64 1294.77 1285.84Z" fill="#0E0F0F"/>
<path d="M1293 1171.57L1281.57 1172L1282.1 1186.17L1293.53 1185.74C1296.23 1185.64 1298.31 1182.38 1298.16 1178.48C1298.02 1174.57 1295.7 1171.47 1293 1171.57Z" fill="url(#paint19_linear_1418_112)"/>
<path d="M1282.15 1186.14C1284.86 1186.04 1286.94 1182.79 1286.8 1178.88C1286.65 1174.96 1284.34 1171.87 1281.63 1171.97C1278.92 1172.07 1276.84 1175.32 1276.99 1179.24C1277.13 1183.15 1279.45 1186.24 1282.15 1186.14Z" fill="#618885"/>
<path d="M1289.02 1059.19C1253.84 1060.49 1227.34 1115.59 1229.8 1182.24C1232.26 1248.9 1262.77 1301.88 1297.93 1300.59C1333.11 1299.29 1359.61 1244.2 1357.15 1177.55C1354.69 1110.9 1324.18 1057.9 1289.02 1059.19ZM1288.63 1283.99C1259.85 1285.05 1234.75 1237.73 1232.56 1178.29C1230.36 1118.85 1251.91 1069.8 1280.68 1068.73C1309.45 1067.66 1334.56 1114.99 1336.75 1174.43C1338.96 1233.87 1317.4 1282.92 1288.63 1283.99Z" fill="#1F2A2B"/>
<path d="M1367.14 1188.17C1367.17 1188.92 1367.18 1189.66 1367.2 1190.4L1390.07 1189.56C1390.29 1184.78 1390.31 1179.94 1390.13 1175.03C1387.51 1104.14 1344.14 1048.18 1293.26 1050.06C1276.55 1050.67 1261.1 1057.45 1247.98 1068.8C1256.17 1064.67 1264.95 1062.28 1274.13 1061.95C1322.85 1060.15 1364.49 1116.68 1367.14 1188.19V1188.17Z" fill="url(#paint20_linear_1418_112)"/>
<path d="M1444.88 934.628L1153.22 917.869V903.355L1444.88 920.1V934.628Z" fill="#216F67"/>
<path d="M1519.2 915.095L1208.53 899.451L1153.22 903.369L1444.88 920.114L1519.2 915.095Z" fill="#A19467"/>
<path d="M1277.27 732.439H1435.74L1435.39 897.212L1278.5 902.96L1277.27 732.439Z" fill="#216F67"/>
<path d="M1524.77 1144.1L1532.6 1148.56L1575.4 1139.62L1567.24 1134.63" stroke="#285351" stroke-width="14.0089" stroke-linecap="round" stroke-linejoin="round"/>
<path d="M1524.77 998.86L1532.6 1003.32L1575.4 997.744L1567.24 992.754" stroke="#285351" stroke-width="14.0089" stroke-linecap="round" stroke-linejoin="round"/>
<path d="M1372.8 739.314V892.862L1429.02 890.802L1429.35 739.314H1372.8Z" fill="#123C37"/>
<path d="M1357.16 739.314H1283.64L1284.77 896.093L1357.16 893.434V739.314Z" fill="#123C37"/>
<path d="M1421.08 289.516H1406.55V908.38H1421.08V289.516Z" fill="url(#paint21_linear_1418_112)"/>
<path d="M1174.86 436.105C1176.13 434.561 1177.68 433.488 1179.35 432.83C1179.89 431.744 1180.44 430.671 1180.99 429.599C1199.43 393.75 1228.79 365.537 1260.6 341.343C1270.88 333.521 1281.51 326.514 1292.47 320.18C1188.22 354.141 1097.58 418.989 1057.95 450.033C1044.5 460.557 1036.66 476.701 1036.66 493.775V508.474L1115.41 486.525C1130.7 482.264 1144.32 473.384 1154.39 461.1L1174.87 436.105H1174.86Z" fill="#2A6F69"/>
<path d="M1786.49 459.312C1782.81 443.683 1653.53 340.327 1504.49 307.996C1527.99 321.581 1550.82 336.323 1572.59 352.553C1589.63 365.251 1606.42 378.435 1620.63 394.293C1626.82 401.2 1632.78 408.449 1637.71 416.343C1638.79 418.073 1639.85 419.889 1640.84 421.762C1643.23 421.591 1645.7 422.491 1647.42 424.636L1655.96 435.261C1663.9 445.142 1674.15 452.906 1685.83 457.854L1786.5 500.523C1786.5 500.523 1790.96 478.331 1786.5 459.327L1786.49 459.312Z" fill="#2A6F69"/>
<path d="M1628.08 412.693C1608.78 386.239 1582.23 365.92 1555.48 347.459C1533.17 331.773 1509.87 317.516 1485.98 304.361C1430.82 294.222 1374.09 297.24 1319.93 312.04C1269.84 335.505 1211.09 382.378 1186.47 432.483C1189.53 433.356 1192.25 435.544 1193.64 438.89L1197.76 448.913C1202.68 460.868 1214.52 468.518 1227.45 468.103L1593.61 456.363C1611.87 455.777 1627.92 444.08 1634.04 426.864C1634.4 425.849 1634.96 424.962 1635.62 424.233C1633.43 420.057 1630.58 416.139 1628.07 412.679L1628.08 412.693Z" fill="url(#paint22_linear_1418_112)"/>
<path d="M1386.77 1040.9C1384.97 1040.9 1383.21 1040.05 1382.1 1038.48C1380.27 1035.91 1380.88 1032.33 1383.47 1030.5L1491.86 953.913C1506.45 943.603 1526.33 944.261 1540.22 955.515L1561.36 972.645C1563.82 974.633 1564.19 978.236 1562.2 980.696C1560.22 983.155 1556.61 983.527 1554.15 981.54L1533.01 964.409C1523.1 956.373 1508.89 955.901 1498.46 963.265L1390.08 1039.85C1389.08 1040.57 1387.92 1040.9 1386.79 1040.9H1386.77Z" fill="#285351"/>
</g>
<defs>
<linearGradient id="paint0_linear_1418_112" x1="50.3379" y1="927.111" x2="548.055" y2="978.155" gradientUnits="userSpaceOnUse">
<stop stop-color="#0047BF"/>
<stop offset="1" stop-color="#001D5E"/>
</linearGradient>
<linearGradient id="paint1_linear_1418_112" x1="467.666" y1="550.705" x2="368.095" y2="864.699" gradientUnits="userSpaceOnUse">
<stop stop-color="#005CBF"/>
<stop offset="1" stop-color="#0047BF"/>
</linearGradient>
<linearGradient id="paint2_linear_1418_112" x1="0" y1="1097.96" x2="473.782" y2="1097.96" gradientUnits="userSpaceOnUse">
<stop stop-color="#2A8BFF"/>
<stop offset="1" stop-color="#005CBF"/>
</linearGradient>
<linearGradient id="paint3_linear_1418_112" x1="1189.97" y1="518.475" x2="1442.96" y2="857.692" gradientUnits="userSpaceOnUse">
<stop offset="0.32" stop-color="#8FCCFF"/>
<stop offset="1" stop-color="#ADD3FF"/>
</linearGradient>
<linearGradient id="paint4_linear_1418_112" x1="544.344" y1="1088.03" x2="401.405" y2="1108.44" gradientUnits="userSpaceOnUse">
<stop offset="0.32" stop-color="#8FCCFF"/>
<stop offset="1" stop-color="#ADD3FF"/>
</linearGradient>
<linearGradient id="paint5_linear_1418_112" x1="471.471" y1="1116.73" x2="548.525" y2="1116.73" gradientUnits="userSpaceOnUse">
<stop stop-color="#2A8BFF"/>
<stop offset="1" stop-color="#005CBF"/>
</linearGradient>
<linearGradient id="paint6_linear_1418_112" x1="1389.43" y1="913.477" x2="1352.41" y2="1000.28" gradientUnits="userSpaceOnUse">
<stop stop-color="#2A8BFF"/>
<stop offset="1" stop-color="#005CBF"/>
</linearGradient>
<linearGradient id="paint7_linear_1418_112" x1="1316.99" y1="818.255" x2="1454.75" y2="994.366" gradientUnits="userSpaceOnUse">
<stop stop-color="#52B1FF"/>
<stop offset="1" stop-color="#ABD1FF"/>
</linearGradient>
<linearGradient id="paint8_linear_1418_112" x1="1297.6" y1="780.71" x2="1297.99" y2="827.12" gradientUnits="userSpaceOnUse">
<stop stop-color="#8A6C63"/>
<stop offset="1" stop-color="#714E48"/>
</linearGradient>
<linearGradient id="paint9_linear_1418_112" x1="819.817" y1="923.405" x2="745.023" y2="1077.37" gradientUnits="userSpaceOnUse">
<stop stop-color="#2A8BFF"/>
<stop offset="1" stop-color="#005CBF"/>
</linearGradient>
<linearGradient id="paint10_linear_1418_112" x1="783.407" y1="1137.19" x2="937.788" y2="1137.19" gradientUnits="userSpaceOnUse">
<stop stop-color="#52B1FF"/>
<stop offset="1" stop-color="#ABD1FF"/>
</linearGradient>
<linearGradient id="paint11_linear_1418_112" x1="1317.06" y1="1060.07" x2="1398.73" y2="1060.07" gradientUnits="userSpaceOnUse">
<stop stop-color="#52B1FF"/>
<stop offset="1" stop-color="#ABD1FF"/>
</linearGradient>
<linearGradient id="paint12_linear_1418_112" x1="1558.7" y1="1078.35" x2="1586.06" y2="1230.08" gradientUnits="userSpaceOnUse">
<stop stop-color="#5C543B"/>
<stop offset="0.66" stop-color="white"/>
<stop offset="0.69" stop-color="#BCB295"/>
<stop offset="1" stop-color="#5C543B"/>
</linearGradient>
<linearGradient id="paint13_linear_1418_112" x1="1579.3" y1="1136.98" x2="1579.3" y2="1148.66" gradientUnits="userSpaceOnUse">
<stop stop-color="#756C50"/>
<stop offset="0.63" stop-color="white"/>
<stop offset="0.82" stop-color="#A9A084"/>
<stop offset="0.93" stop-color="#71684C"/>
<stop offset="1" stop-color="#176B66"/>
</linearGradient>
<linearGradient id="paint14_linear_1418_112" x1="1592.57" y1="1011.85" x2="1628.7" y2="1166.77" gradientUnits="userSpaceOnUse">
<stop stop-color="#756C50"/>
<stop offset="0.66" stop-color="white"/>
<stop offset="0.68" stop-color="#A9A084"/>
<stop offset="0.93" stop-color="#71684C"/>
<stop offset="1" stop-color="#493914"/>
</linearGradient>
<linearGradient id="paint15_linear_1418_112" x1="1414.67" y1="378.391" x2="1412.13" y2="525.832" gradientUnits="userSpaceOnUse">
<stop offset="0.01" stop-color="#0A2B2F"/>
<stop offset="1" stop-color="#0A494D"/>
</linearGradient>
<linearGradient id="paint16_linear_1418_112" x1="1207.97" y1="985.182" x2="1445.44" y2="985.182" gradientUnits="userSpaceOnUse">
<stop offset="0.32" stop-color="#8E8D5B"/>
<stop offset="1" stop-color="#A19467"/>
</linearGradient>
<linearGradient id="paint17_linear_1418_112" x1="1652.38" y1="950.91" x2="1654.13" y2="965.052" gradientUnits="userSpaceOnUse">
<stop stop-color="#756C50"/>
<stop offset="0.66" stop-color="white"/>
<stop offset="0.68" stop-color="#A9A084"/>
<stop offset="0.93" stop-color="#71684C"/>
<stop offset="1" stop-color="#176B66"/>
</linearGradient>
<linearGradient id="paint18_linear_1418_112" x1="1269.27" y1="1112.98" x2="1296.65" y2="1264.71" gradientUnits="userSpaceOnUse">
<stop stop-color="#5C543B"/>
<stop offset="0.66" stop-color="white"/>
<stop offset="0.69" stop-color="#BCB295"/>
<stop offset="1" stop-color="#5C543B"/>
</linearGradient>
<linearGradient id="paint19_linear_1418_112" x1="1289.87" y1="1171.6" x2="1289.87" y2="1183.29" gradientUnits="userSpaceOnUse">
<stop stop-color="#756C50"/>
<stop offset="0.66" stop-color="white"/>
<stop offset="0.68" stop-color="#A9A084"/>
<stop offset="0.93" stop-color="#71684C"/>
<stop offset="1" stop-color="#493914"/>
</linearGradient>
<linearGradient id="paint20_linear_1418_112" x1="1303.16" y1="1046.48" x2="1339.28" y2="1201.41" gradientUnits="userSpaceOnUse">
<stop stop-color="#756C50"/>
<stop offset="0.66" stop-color="white"/>
<stop offset="0.68" stop-color="#A9A084"/>
<stop offset="0.93" stop-color="#71684C"/>
<stop offset="1" stop-color="#493914"/>
</linearGradient>
<linearGradient id="paint21_linear_1418_112" x1="1406.55" y1="598.955" x2="1421.08" y2="598.955" gradientUnits="userSpaceOnUse">
<stop offset="0.01" stop-color="#CBBC96"/>
<stop offset="0.73" stop-color="#E4DAB9"/>
<stop offset="0.79" stop-color="#EDDFCA"/>
<stop offset="1" stop-color="#CBBC96"/>
</linearGradient>
<linearGradient id="paint22_linear_1418_112" x1="1411.05" y1="458.551" x2="1411.05" y2="372.111" gradientUnits="userSpaceOnUse">
<stop offset="0.01" stop-color="#57915B"/>
<stop offset="1" stop-color="#6D9D74"/>
</linearGradient>
<clipPath id="clip0_1418_112">
<rect width="1503.63" height="980.626" fill="white" transform="translate(0 280.18)"/>
</clipPath>
<clipPath id="clip1_1418_112">
<rect width="751.813" height="1013.31" fill="white" transform="translate(1036.66 289.518)"/>
</clipPath>
</defs>
</svg>
