<?xml version="1.0" encoding="utf-8"?>
<!-- Generator: Adobe Illustrator 26.0.3, SVG Export Plug-In . SVG Version: 6.00 Build 0)  -->
<svg version="1.1" id="Layer_1" xmlns="http://www.w3.org/2000/svg" xmlns:xlink="http://www.w3.org/1999/xlink" x="0px" y="0px"
	 viewBox="0 0 500 500" style="enable-background:new 0 0 500 500;" xml:space="preserve">
<style type="text/css">
	.st0{fill:url(#SVGID_1_);}
</style>
<linearGradient id="SVGID_1_" gradientUnits="userSpaceOnUse" x1="213.4707" y1="269.901" x2="213.4707" y2="334.2574">
	<stop  offset="0" style="stop-color:#EC2227"/>
	<stop  offset="1" style="stop-color:#CD2035"/>
</linearGradient>
<path class="st0" d="M303.7,273.3c0,3.7-2.7,7.2-5.7,7.2c-2.1,0-3.8-1.5-3.8-4c0-3.6,2.8-7.1,5.9-7.1
	C302.1,269.4,303.7,271,303.7,273.3z M335.6,308c0,0.6-0.8,1.6-0.8,1.6s-3.9,4.9-8,4.9c-3.9,0-6.9-2.1-7.4-6c0,0-4.6,6-10,6
	c-3.1,0-5.8-2-6.7-5c-2.2,2.4-5.4,5-9.3,5c-4.4,0-7.6-2.1-8.6-5.4c-3,2.6-8.4,5.9-17,5.9c-4.8,0-9.1-3-11.2-6.2
	c-2.5,2.5-6.8,5.7-13.3,5.7c-5.3,0-9.5-2.4-11.2-6.1c-2.1,2.5-5.8,6.1-10.3,6.1c-5.3,0-8.7-4.4-8.9-6.9c0,0-5.7,6.9-11.5,6.9
	c-3.3,0-6.5-2.3-7.6-5.9c-2.4,2.5-6.8,5.9-13.6,5.9c-7.1,0-12.2-4.4-12.2-10.3c0-0.6,0-1.2,0.1-1.8c0,0,0,0-0.1,0l0,0l0,0
	c-4.9-2.4-3.7-8.7-3.5-10.2c0.3-1.9,0.4-2.2,1-2.1c0.5,0,0.4,0.8,0.4,0.8s-0.8,1.9,1.2,6.2c0.4,0.9,1,1.6,1.7,2
	c2.3-7.8,9.2-12.6,14.3-12.6c4.3,0,7.7,3.7,7.7,7.4c0,3.3-2.5,10.1-11,10.4l0,0c0,0-0.1,0-0.1,0c-0.1,0-0.2,0-0.3,0s-0.2,0-0.4,0
	c-0.8,0-1.6-0.1-2.3-0.1c0.1,4,2.9,6.3,6.2,6.3c5.9,0,9.8-5,10.6-6.2c1-10.6,10.5-17.8,16.6-17.8c2.7,0,4.4,1.1,4.4,1.1
	c3.2-11.5,9.1-22.5,15.5-22.5c2.9,0,6.1,3.3,6.1,6.5c0,6.8-15.4,28.1-15.4,28.1c-0.2,1.2-0.3,2.4-0.3,3.5c0,3.9,1.2,6.7,3.8,6.7
	c2.9,0,5.8-3.6,6.9-5.2c0-0.1,0-0.3,0-0.4c0-10.7,8.9-17.8,15-17.8c4.3,0,7.7,3.7,7.7,7.4c0,3.4-2.6,10.4-11.5,10.4
	c-0.8,0-2.7-0.4-2.7-0.4c0,4.1,2.8,6.5,6.2,6.5c4.3,0,7.5-2.7,9.3-4.6c0-0.3-0.1-0.7-0.1-1c0-4.1,6.7-5.6,6.7-5.6s1.5-2.3,4.7-7.3
	c3.3-4.9,5.5-6.6,7.3-6.6c1.5,0,3.4,1.9,3.4,2.6c0,1-1.7,2.7-1.7,4.6c0,5.5,2.7,7.9,2.7,12.1c0,3.6-1.6,5.4-1.6,5.4
	c3.9-1,6.6-3.6,7.9-5.1c0.7-5.4,3.8-13.6,5.3-17.1c0.4-0.8,1.1-1.3,1.9-1.3c2.1,0,5.5,2.9,5.5,4c0,4.2-3.9,10-3.9,16.8
	c0,1.6,0.8,2.7,2.2,2.7c2.8,0,5.6-3.3,6.8-5c1.2-9.3,8.9-18.4,16-18.4c5.7,0,7.7,3.3,7.7,3.3c2.1,0,5,0.8,5,3.3
	c0,2.1-4.1,10.1-4.1,14.9c0,1.1,0.8,2,2,2c1.4,0,3.4-2.3,3.4-2.3c0.4-0.4,0.8-1,1.5-1C334.8,306.4,335.6,307.2,335.6,308z
	 M240.2,300.8c5.1,0,9.1-6.5,9.1-9.5c0-0.9-0.5-1.4-1.2-1.4C244.2,289.9,240.2,297.1,240.2,300.8z M221.2,294.3
	c0,0,11.2-17.9,11.2-24c0-0.7-0.4-1.2-1-1.2C229,269.1,223.7,282,221.2,294.3z M177.1,300.8c5.1,0,9.1-6.5,9.1-9.5
	c0-0.9-0.5-1.4-1.2-1.4C181.1,289.9,177.1,297.2,177.1,300.8z M213.7,291.4c0,0-0.8-1.1-2-1.1c-4.5,0-9.5,9.7-9.5,15.4
	c0,2.5,1,4,2.6,4c2.9,0,7.7-5.8,7.7-5.8C212.6,299.7,213.1,295.6,213.7,291.4z M270.2,305.9c0-3.6-2.2-8.1-2.2-11
	c0,0-5.2,7.9-5.2,8.8c0,4.1,0.9,8,3.4,8C268.4,311.8,270.2,309.1,270.2,305.9z M322.6,293.4c0-2.1-1.1-3-2.5-3
	c-4.1,0-9.1,9.7-9.1,15.6c0,2.1,0.6,3.2,2.1,3.2C316.5,309.1,322.6,298.8,322.6,293.4z M122.6,301.1c0,0-3.2,6.6-15.7,12.5
	c15.9,0,30.1-7,43.1-7c3.6,0,7.3,1.7,7.3,3s2.4-5.4-3.9-10.1c-6.3-4.7-18.6-5.7-46.4-23.5C106.9,288.8,122.6,301.1,122.6,301.1z
	 M119.4,301.1c-15.3-5.8-19.1-26.7-19.1-26.7s-6.6,0.5-6,7.3C94.3,291.3,110.7,301.1,119.4,301.1z M117.9,302.6
	c-8-0.3-24.2-6.6-26.6-13.2C91.3,296,92.9,310.3,117.9,302.6z M99.4,307.5c1.2,3,3.2,4.1,5.4,4.1c2.2,0,12.2-6.9,12.2-6.9
	C105.7,309,99.4,307.5,99.4,307.5z"/>
</svg>
